# xmcd
# Track frame offsets:
# 150
# 23980
# 52378
# 72590
# 89016
# 105108
# 124139
#
# Disc length: 1991 seconds
# Revision: 0
# Processed by: cddbd v1.5.2PL0 Copyright (c) Steve Scherf et al.
# Submitted via: VisiTrax 2.10.2.252 - For more info visit www.synapsa.com
#
DISCID=6307c507
DTITLE=Daniel Norgren - Promo
DYEAR=2008
DGENRE=Blues
TTITLE0=Let me go
TTITLE1=Captain Haneys blues
TTITLE2=No one wants you as you are
TTITLE3=Trouble so hard
TTITLE4=Whs knooking
TTITLE5=The comedian
TTITLE6=Long way till tomorrow
EXTD=
EXTT0=
EXTT1=
EXTT2=
EXTT3=
EXTT4=
EXTT5=
EXTT6=
PLAYORDER=
